<svg width="24" height="24" viewBox="0 0 24 24" fill="none" xmlns="http://www.w3.org/2000/svg">
<circle cx="13.5" cy="8.5" r="1.5" fill="black"/>
<path d="M13 12H15L17 12" stroke="black" stroke-width="2" stroke-linecap="round"/>
<path d="M13 15H15L17 15" stroke="black" stroke-width="2" stroke-linecap="round"/>
<path d="M9 17.3333V17.3333C9 18.8061 10.1939 20 11.6667 20H18C19.6569 20 21 18.6569 21 17V7C21 5.34315 19.6569 4 18 4H11.6667C10.1939 4 9 5.19391 9 6.66667V6.66667" stroke="black" stroke-width="2"/>
<path d="M6 8L9.92198 11.922C9.96612 11.9661 9.96918 12.0367 9.92903 12.0845V12.0845M6 16L9.92903 12.0845M9.92903 12.0845C9.85985 12.1668 5.28085 12.1188 3 12.0845" stroke="black" stroke-width="2" stroke-linecap="round"/>
</svg>
